<svg xmlns="http://www.w3.org/2000/svg" viewBox="0 0 180 220" fill="none">
  <!--
    Recibito — "Overwhelmed" expression
    Same receipt body, tilted further. Big surprised eyes with dark pupils.
    Chaotic chat lines at slight angles. Floating !, ?, ? marks.
  -->

  <!-- Receipt body with more dramatic tilt -->
  <g transform="rotate(-6, 90, 110)">
    <path
      d="M 32,28 l 4,-3.5 4,3.5 4,-3.5 4,3.5 4,-3.5 4,3.5 4,-3.5 4,3.5 4,-3.5 4,3.5 4,-3.5 4,3.5 4,-3.5 4,3.5 4,-3.5 4,3.5 4,-3.5 4,3.5 4,-3.5 4,3.5 4,-3.5 4,3.5 4,-3.5 4,3.5 4,-3.5 4,3.5 C 152,40 134,82 148,118 C 153,152 134,174 142,179 l -4,3.5 -4,-3.5 -4,3.5 -4,-3.5 -4,3.5 -4,-3.5 -4,3.5 -4,-3.5 -4,3.5 -4,-3.5 -4,3.5 -4,-3.5 -4,3.5 -4,-3.5 -4,3.5 -4,-3.5 -4,3.5 -4,-3.5 -4,3.5 -4,-3.5 -4,3.5 -4,-3.5 -4,3.5 -4,-3.5 -4,3.5 -4,-3.5 C 22,162 40,130 26,92 C 21,56 40,36 32,28 Z"
      stroke="#4A90D9"
      stroke-width="2.5"
      stroke-linecap="round"
      stroke-linejoin="round"
    />

    <!-- Big surprised eyes: large circle + small dark pupil offset upward -->
    <circle cx="68" cy="72" r="8" fill="#4A90D9"/>
    <circle cx="71" cy="69" r="3" fill="#0C1017"/>
    <circle cx="108" cy="69" r="8" fill="#4A90D9"/>
    <circle cx="111" cy="66" r="3" fill="#0C1017"/>

    <!-- Chaotic chat lines at slight random angles -->
    <rect x="48" y="106" width="40" height="7" rx="3.5" fill="#4A90D9" opacity="0.28" transform="rotate(-2, 68, 109)"/>
    <rect x="86" y="120" width="34" height="7" rx="3.5" fill="#4A90D9" opacity="0.20" transform="rotate(3, 103, 123)"/>
    <rect x="50" y="136" width="26" height="7" rx="3.5" fill="#4A90D9" opacity="0.28" transform="rotate(-1, 63, 139)"/>
    <rect x="80" y="150" width="38" height="7" rx="3.5" fill="#4A90D9" opacity="0.14" transform="rotate(2, 99, 153)"/>
  </g>

  <!-- Floating ! top-right -->
  <g opacity="0.50">
    <line x1="152" y1="26" x2="152" y2="44" stroke="#4A90D9" stroke-width="2.5" stroke-linecap="round"/>
    <circle cx="152" cy="51" r="2" fill="#4A90D9"/>
  </g>

  <!-- Floating ? top-left -->
  <g opacity="0.35">
    <path
      d="M 22,46 C 22,38 30,35 34,40 C 38,45 32,50 28,52 L 28,58"
      stroke="#4A90D9"
      stroke-width="2"
      fill="none"
      stroke-linecap="round"
    />
    <circle cx="28" cy="64" r="2" fill="#4A90D9"/>
  </g>

  <!-- Floating ? bottom-right -->
  <g opacity="0.22">
    <path
      d="M 162,148 C 162,141 169,138 172,143 C 175,148 170,152 167,154 L 167,159"
      stroke="#4A90D9"
      stroke-width="2"
      fill="none"
      stroke-linecap="round"
    />
    <circle cx="167" cy="164" r="1.5" fill="#4A90D9"/>
  </g>
</svg>
