<svg xmlns="http://www.w3.org/2000/svg" viewBox="0 0 160 200" fill="none">
  <!--
    Recibito v2 — Character variant (Primary blue)
    Receipt + eyes + chat lines + floating question mark.
    Tilted with personality.
  -->

  <!-- Receipt body with head-tilt -->
  <g transform="rotate(-3, 80, 100)">
    <path
      d="M 28,25 l 4,-3.5 4,3.5 4,-3.5 4,3.5 4,-3.5 4,3.5 4,-3.5 4,3.5 4,-3.5 4,3.5 4,-3.5 4,3.5 4,-3.5 4,3.5 4,-3.5 4,3.5 4,-3.5 4,3.5 4,-3.5 4,3.5 4,-3.5 4,3.5 4,-3.5 4,3.5 4,-3.5 4,3.5 C 142,37 124,78 139,115 C 144,148 124,170 132,175 l -4,3.5 -4,-3.5 -4,3.5 -4,-3.5 -4,3.5 -4,-3.5 -4,3.5 -4,-3.5 -4,3.5 -4,-3.5 -4,3.5 -4,-3.5 -4,3.5 -4,-3.5 -4,3.5 -4,-3.5 -4,3.5 -4,-3.5 -4,3.5 -4,-3.5 -4,3.5 -4,-3.5 -4,3.5 -4,-3.5 -4,3.5 -4,-3.5 C 19,159 37,127 23,88 C 18,52 37,32 28,25 Z"
      stroke="#4A90D9"
      stroke-width="2.5"
      stroke-linecap="round"
      stroke-linejoin="round"
    />

    <!-- Eyes -->
    <circle cx="62" cy="68" r="5" fill="#4A90D9"/>
    <circle cx="100" cy="65" r="5" fill="#4A90D9"/>

    <!-- Chat lines (below eyes) -->
    <rect x="44" y="100" width="36" height="8" rx="4" fill="#4A90D9" opacity="0.22"/>
    <rect x="80" y="115" width="38" height="8" rx="4" fill="#4A90D9" opacity="0.14"/>
    <rect x="46" y="130" width="28" height="8" rx="4" fill="#4A90D9" opacity="0.22"/>
  </g>

  <!-- Floating question mark -->
  <g opacity="0.4">
    <path
      d="M 126,36 C 126,28 134,25 138,30 C 142,35 136,40 132,42 L 132,48"
      stroke="#4A90D9"
      stroke-width="2.5"
      fill="none"
      stroke-linecap="round"
    />
    <circle cx="132" cy="54" r="2" fill="#4A90D9"/>
  </g>
</svg>
