<svg width="1200" height="1200" xmlns="http://www.w3.org/2000/svg" xmlns:xlink="http://www.w3.org/1999/xlink" version="1.1"><g transform="scale(10.8) translate(5.673449251386852, 5.555472860069939)">                        <g fill="currentColor"><g xmlns="http://www.w3.org/2000/svg" transform="translate(0.000000,1004.000000) scale(0.100000,-0.100000)"><path d="M390.957,10003.437l4.307-1.099l7.378-1.88c3.008-7.407,7.954-14.438,13.843-19.316c4.849-3.882,11.704-6.587,16.523-7.817   c3.369-0.859,6.758-1.294,10.063-1.294c10.327,0,19.502,4.116,26.221,11.44l4.424-1.128l7.119-1.821   c3.53-8.252,9.57-16.187,15.186-20.386c6.89-4.971,16.47-7.939,25.61-7.939c3.115,0,6.094,0.352,8.887,1.035l0.283,0.068   l0.293,0.083c5.566,1.548,11.514,5.2,16.318,10.166l3.799-0.967c2.021-0.518,5.107-1.309,7.979-2.065   c2.49-6.206,5.986-11.714,10.107-15.82c7.275-7.485,12.324-9.492,21.797-11.426c3.467-0.684,6.416-1.133,9.57-1.133   c6.836,0,11.777,2.271,14.766,3.901c3.789,2.036,7.188,4.624,10.078,7.593l4.258-1.084l7.393-1.88   c2.871-7.197,7.49-13.823,12.969-18.398c7.432-6.309,17.822-10.073,27.793-10.073c3.35,0,6.553,0.435,9.863,1.377   c5.781,1.748,11.406,5.454,15.928,10.127l4.355-1.113l7.441-1.89c3.018-7.417,7.949-14.443,13.828-19.287   c4.873-3.926,11.797-6.641,16.621-7.856c3.418-0.874,6.816-1.318,10.098-1.318c5.41,0,16.65,1.377,25.85,11.528   c1.699-0.425,3.291-0.83,4.502-1.138l7.236-1.841c3.174-7.822,8.652-15.347,14.824-19.966c7.686-5.889,18.76-8.525,26.318-8.525   c2.227,0,4.365,0.215,6.318,0.615c7.041,1.455,13.809,5.474,18.984,10.928l4.17-1.06c1.953-0.503,4.922-1.26,7.695-1.997   c7.1-18.384,21.045-24.712,29.521-26.875c3.789-0.977,7.959-1.514,11.758-1.514c2.744,0,5.186,0.278,7.793,0.933   c1.162,0.308,2.295,0.684,3.418,1.123c-3.076-29.39-8.496-76.045-11.318-97.358c-27.93-206.128-78.359-384.541-149.912-530.283   c-29.688-60.625-65.781-118.574-97.646-157.061c-4.736,5.283-10.645,9.336-17.441,11.885c-4.395,1.562-8.916,2.363-13.467,2.363   c-9.062,0-17.441-3.125-23.887-8.584l-6.992,1.797l-9.482,2.402c-3.574,6.66-8.906,12.979-14.688,17.051   c-6.904,4.795-14.814,7.324-22.871,7.324c-9.004,0-17.393-3.135-23.955-8.691l-7.373,1.885l-9.307,2.363   c-3.496,6.426-8.662,12.568-13.989,16.377c-6.987,5.205-15.171,7.969-23.662,7.969c-8.936,0-17.358-3.174-23.799-8.682   l-7.295,1.836l-9.082,2.324c-5.835,10.977-17.139,20.527-29.092,23.574c-2.661,0.674-5.449,1.025-8.301,1.025   c-8.857,0-17.729-3.34-24.541-8.799l-6.895,1.768l-9.878,2.51c-1.982,3.691-4.565,7.549-7.056,10.42l-0.288,0.332l-0.308,0.322   c-6.191,6.553-10.938,9.287-20.469,11.738c-3.145,0.781-6.831,1.621-10.854,1.621c-5.786,0-10.215-1.68-13.789-3.311l-0.312-0.146   l-0.312-0.156c-2.603-1.309-5.278-3.115-7.754-5.234l-7.456,1.904c-3.521,0.898-6.807,1.738-9.429,2.432   c-6.045,11.162-16.362,20.107-27.363,23.066c-3.047,0.781-6.24,1.182-9.487,1.182c-9.414,0-18.237-3.164-24.902-8.545l-6.66,1.699   l-9.834,2.52c-2.603,5.469-5.898,9.58-11.255,14.17c-8.145,6.777-16.89,10.225-25.981,10.225c-2.31,0-4.658-0.225-6.973-0.674   c-6.045-1.113-12.104-4.072-17.104-8.105l-7.393,1.895l-9.424,2.402c-4.165,7.637-10.693,14.688-16.543,18.242   c-3.867,2.285-7.646,3.936-11.406,4.961c8.169,10.352,16.504,21.299,23.208,30.547c113.14,156.631,188.926,368.76,219.15,613.423   c4.204,33.828,8.438,88.193,10.332,128.408c5.059-1.885,10.498-2.949,15.63-2.949c2.783,0,5.464,0.322,8.169,1.011   C380.137,9994.55,386.186,9998.358,390.957,10003.437 M330.371,10039.999l0.098-6.167c0.469-31.025-5.396-118.374-11.187-164.937   c-29.937-242.275-103.706-449.287-215.435-603.975c-12.52-17.266-32.021-42.119-44.292-56.123l-9.512-11.016l10.43-2.988   c5.044-1.426,8.384-2.168,9.893-2.168c0.547,0,0.85,0.098,0.913,0.293c1.387,3.193,7.954,8.516,11.899,9.57   c1.631,0.479,3.179,0.723,4.717,0.723c3.252,0,6.465-1.084,10.298-3.369c4.326-2.627,10.181-10.684,10.806-14.951l0.381-2.764   l20.142-5.146l20.161-5.146l1.318,2.803c1.875,3.613,7.334,7.471,11.865,8.262c1.079,0.225,2.139,0.332,3.193,0.332   c4.277,0,8.442-1.787,12.896-5.498c3.794-3.252,5.278-5.361,6.973-9.863l2.192-5.82l19.951-5.098l20.054-5.117l0.791,2.49   c1.748,5.156,8.843,8.828,15.776,8.828c1.499,0,2.988-0.166,4.414-0.537c6.689-1.797,14.019-9.805,16.523-17.861   c0.762-2.656,0.942-2.695,20.42-7.676l19.673-5.02l2.603,3.887c1.465,2.1,4.648,4.844,7.021,6.025   c2.124,0.986,3.506,1.455,5.249,1.455c1.475,0,3.208-0.342,5.884-1.016c5.811-1.494,7.124-2.295,10.581-5.947   c2.051-2.363,4.683-6.592,5.728-9.316l1.86-5.01l19.756-5.029l19.673-5.029l1.323,2.783c2.598,5,9.443,8.652,15.483,8.652   c1.113,0,2.197-0.137,3.223-0.391c7.852-2.002,16.768-11.064,17.769-17.988l0.366-2.783l20.054-5.127l19.961-5.039l3.057,4.473   c2.983,4.443,7.91,6.768,13.14,6.768c3.862,0,7.895-1.27,11.426-3.906c4.175-2.979,8.789-9.424,10.015-13.848l0.83-3.311   l19.648-5.01l19.668-5.02l3.027,4.092c3.35,4.697,8.359,7.1,13.672,7.1c3.76,0,7.656-1.201,11.211-3.672   c4.316-3.037,9.092-9.854,10.283-14.688l0.752-2.764l19.766-5.02l19.854-5.088l1.943,3.262c2.949,5.156,8.262,7.988,14.111,7.988   c2.148,0,4.365-0.381,6.572-1.172c6.406-2.393,11.328-7.402,14.189-14.619c2.129-5.166,2.412-5.459,6.836-6.562l4.561-1.191   l8.311,9.404c34.521,39.746,73.975,102.09,106.455,168.408c72.461,147.588,123.672,328.784,151.807,536.533   c3.701,27.905,11.543,96.44,13.35,118.057l0.859,10.229l-9.502,2.417l-9.561,2.441l-1.504-3.906   c-1.914-4.805-6.748-9.287-11.289-10.503c-0.635-0.161-1.504-0.239-2.51-0.239c-1.982,0-4.453,0.308-6.641,0.869   c-9.473,2.412-15.4,9.731-17.637,22.056c-0.352,1.699-2.188,2.368-19.639,6.826l-19.16,4.893l-1.426-4.165   c-1.689-4.854-7.041-9.409-11.748-10.376c-0.645-0.137-1.387-0.2-2.197-0.2c-4.385,0-10.684,1.865-13.896,4.321   c-4.346,3.252-8.73,10.278-9.58,15.786l-0.674,4.702l-19.18,4.893c-11.494,2.93-16.221,4.043-18.262,4.043   c-1.074,0-1.416-0.293-1.631-0.796c-3.408-8.691-8.574-13.008-15.508-13.008c-1.592,0-3.262,0.225-5.029,0.679   c-3.301,0.835-7.109,2.563-8.857,3.97c-4.16,3.433-8.076,10.142-9.092,15.684l-0.781,4.517l-19.189,4.878l-19.102,4.863   l-0.938-2.871c-1.367-4.521-6.768-9.912-11.201-11.25c-1.201-0.342-2.539-0.503-3.945-0.503c-4.941,0-10.762,1.992-14.551,5.205   c-4.277,3.574-7.764,9.951-8.701,15.586l-0.645,4.038l-19.209,4.888l-19.16,4.888l-0.82-2.705   c-1.23-4.199-4.746-8.164-9.082-10.488c-1.836-1.006-3.174-1.47-5.088-1.47c-1.416,0-3.154,0.259-5.645,0.747   c-6.27,1.284-7.314,1.763-11.045,5.61c-3.809,3.784-6.768,10.024-7.891,16.572c-0.371,1.709-2.178,2.378-19.824,6.88l-19.355,4.927   l-0.205-2.427c-0.371-4.312-6.221-10.464-11.074-11.812c-1.211-0.303-2.568-0.439-3.994-0.439c-4.678,0-10.117,1.528-13.647,4.072   c-4.165,3.12-9.355,11.968-9.741,16.582l-0.303,3.96l-19.16,4.893l-19.175,4.883l-1.577-3.579   c-2.935-7.168-8.281-10.981-14.956-10.981c-1.602,0-3.271,0.215-5.01,0.659c-3.218,0.825-7.021,2.549-8.784,3.96   c-4.15,3.442-8.052,10.137-9.082,15.674l-0.786,4.517l-19.092,4.868l-19.072,4.873l-1.538-3.931   c-1.89-4.805-6.699-9.282-11.26-10.493c-0.864-0.22-1.846-0.327-2.91-0.327c-4.897,0-11.416,2.202-15.059,5.347   c-4.146,3.53-7.324,9.287-8.604,15.439c-0.84,4.199-0.84,4.199-6.172,5.562L330.371,10039.999L330.371,10039.999z"/></g></g>        </g></svg>